HIERARCHY
ROOT Hips
{
  OFFSET 5.80788e-005 67.184 3.4734
  CHANNELS 6 Xposition Yposition Zposition Zrotation Xrotation Yrotation
  JOINT Chest
  {
    OFFSET 0 8.7983 -4.7612
    CHANNELS 3 Zrotation Xrotation Yrotation
    JOINT Chest2
    {
      OFFSET 0 8.0291 0.4195
      CHANNELS 3 Zrotation Xrotation Yrotation
      JOINT Chest3
      {
        OFFSET 0 9.9351 -2.2114
        CHANNELS 3 Zrotation Xrotation Yrotation
        JOINT Neck
        {
          OFFSET 0 22.3885 -0.4656
          CHANNELS 3 Zrotation Xrotation Yrotation
          JOINT Head
          {
            OFFSET -0.0001 12.643 3.4389
            CHANNELS 3 Zrotation Xrotation Yrotation
            End Site
            {
              OFFSET 0.0001 17.6655 0.5274
            }
          }
        }
        JOINT LeftCollar
        {
          OFFSET 2.2603 21.606 7.4023
          CHANNELS 3 Zrotation Xrotation Yrotation
          JOINT LeftShoulder
          {
            OFFSET 13.5163 -1.1332 -5.0146
            CHANNELS 3 Zrotation Xrotation Yrotation
            JOINT LeftElbow
            {
              OFFSET -0.0995 -28.05 -0.2431
              CHANNELS 3 Zrotation Xrotation Yrotation
              JOINT LeftWrist
              {
                OFFSET 0.0679 -23.3996 -0.1402
                CHANNELS 3 Zrotation Xrotation Yrotation
                JOINT LeftFinger1
                {
                  OFFSET 0.7932 -9.069 2.5189
                  CHANNELS 3 Zrotation Xrotation Yrotation
                  JOINT LeftFinger11
                  {
                    OFFSET -0.8272 -3.3923 0.5977
                    CHANNELS 3 Zrotation Xrotation Yrotation
                    JOINT LeftFinger12
                    {
                      OFFSET -0.5649 -2.3158 0.4082
                      CHANNELS 3 Zrotation Xrotation Yrotation
                      End Site
                      {
                        OFFSET -0.4919 -1.6479 0.2673
                      }
                    }
                  }
                }
                JOINT LeftFinger2
                {
                  OFFSET 0.9159 -9.2044 0.2193
                  CHANNELS 3 Zrotation Xrotation Yrotation
                  JOINT LeftFinger21
                  {
                    OFFSET 0.0117 -4.1944 -0.0248
                    CHANNELS 3 Zrotation Xrotation Yrotation
                    JOINT LeftFinger22
                    {
                      OFFSET 0.0071 -2.3249 -0.0142
                      CHANNELS 3 Zrotation Xrotation Yrotation
                      End Site
                      {
                        OFFSET -0.1475 -2.0882 0.0028
                      }
                    }
                  }
                }
                JOINT LeftFinger3
                {
                  OFFSET 0.6113 -8.7231 -2.0637
                  CHANNELS 3 Zrotation Xrotation Yrotation
                  JOINT LeftFinger31
                  {
                    OFFSET -0.1927 -3.8059 -0.2383
                    CHANNELS 3 Zrotation Xrotation Yrotation
                    JOINT LeftFinger32
                    {
                      OFFSET -0.1091 -2.1688 -0.1362
                      CHANNELS 3 Zrotation Xrotation Yrotation
                      End Site
                      {
                        OFFSET -0.2358 -1.9176 -0.0906
                      }
                    }
                  }
                }
                JOINT LeftFinger4
                {
                  OFFSET -0.6151 -8.0947 -3.5641
                  CHANNELS 3 Zrotation Xrotation Yrotation
                  JOINT LeftFinger41
                  {
                    OFFSET -0.4882 -2.341 -0.6462
                    CHANNELS 3 Zrotation Xrotation Yrotation
                    JOINT LeftFinger42
                    {
                      OFFSET -0.3575 -1.7167 -0.4742
                      CHANNELS 3 Zrotation Xrotation Yrotation
                      End Site
                      {
                        OFFSET -0.4187 -1.5237 -0.3496
                      }
                    }
                  }
                }
                JOINT LeftFinger0
                {
                  OFFSET -1.42 -1.8761 1.4223
                  CHANNELS 3 Zrotation Xrotation Yrotation
                  JOINT LeftFinger01
                  {
                    OFFSET -1.1471 -3.4929 2.6334
                    CHANNELS 3 Zrotation Xrotation Yrotation
                    JOINT LeftFinger02
                    {
                      OFFSET -0.823 -2.3 1.6571
                      CHANNELS 3 Zrotation Xrotation Yrotation
                      End Site
                      {
                        OFFSET -0.5822 -1.6914 1.1582
                      }
                    }
                  }
                }
              }
            }
          }
        }
        JOINT RightCollar
        {
          OFFSET -2.2603 21.606 7.4023
          CHANNELS 3 Zrotation Xrotation Yrotation
          JOINT RightShoulder
          {
            OFFSET -13.5187 -1.1334 -5.0155
            CHANNELS 3 Zrotation Xrotation Yrotation
            JOINT RightElbow
            {
              OFFSET 0.0994 -28.0499 -0.2431
              CHANNELS 3 Zrotation Xrotation Yrotation
              JOINT RightWrist
              {
                OFFSET -0.0679 -23.3996 -0.1402
                CHANNELS 3 Zrotation Xrotation Yrotation
                JOINT RightFinger1
                {
                  OFFSET -0.7932 -9.0691 2.5189
                  CHANNELS 3 Zrotation Xrotation Yrotation
                  JOINT RightFinger11
                  {
                    OFFSET 0.8272 -3.3923 0.5977
                    CHANNELS 3 Zrotation Xrotation Yrotation
                    JOINT RightFinger12
                    {
                      OFFSET 0.565 -2.3158 0.4082
                      CHANNELS 3 Zrotation Xrotation Yrotation
                      End Site
                      {
                        OFFSET 0.4919 -1.6479 0.2673
                      }
                    }
                  }
                }
                JOINT RightFinger2
                {
                  OFFSET -0.916 -9.2044 0.2193
                  CHANNELS 3 Zrotation Xrotation Yrotation
                  JOINT RightFinger21
                  {
                    OFFSET -0.0117 -4.1944 -0.0248
                    CHANNELS 3 Zrotation Xrotation Yrotation
                    JOINT RightFinger22
                    {
                      OFFSET -0.0071 -2.3249 -0.0142
                      CHANNELS 3 Zrotation Xrotation Yrotation
                      End Site
                      {
                        OFFSET 0.1475 -2.0882 0.0028
                      }
                    }
                  }
                }
                JOINT RightFinger3
                {
                  OFFSET -0.6113 -8.7231 -2.0637
                  CHANNELS 3 Zrotation Xrotation Yrotation
                  JOINT RightFinger31
                  {
                    OFFSET 0.1927 -3.8059 -0.2383
                    CHANNELS 3 Zrotation Xrotation Yrotation
                    JOINT RightFinger32
                    {
                      OFFSET 0.1091 -2.1688 -0.1362
                      CHANNELS 3 Zrotation Xrotation Yrotation
                      End Site
                      {
                        OFFSET 0.2358 -1.9176 -0.0906
                      }
                    }
                  }
                }
                JOINT RightFinger4
                {
                  OFFSET 0.6151 -8.0947 -3.564
                  CHANNELS 3 Zrotation Xrotation Yrotation
                  JOINT RightFinger41
                  {
                    OFFSET 0.4882 -2.341 -0.6462
                    CHANNELS 3 Zrotation Xrotation Yrotation
                    JOINT RightFinger42
                    {
                      OFFSET 0.3574 -1.7166 -0.4742
                      CHANNELS 3 Zrotation Xrotation Yrotation
                      End Site
                      {
                        OFFSET 0.4187 -1.5237 -0.3496
                      }
                    }
                  }
                }
                JOINT RightFinger0
                {
                  OFFSET 1.4199 -1.8761 1.4221
                  CHANNELS 3 Zrotation Xrotation Yrotation
                  JOINT RightFinger01
                  {
                    OFFSET 1.1472 -3.4929 2.6336
                    CHANNELS 3 Zrotation Xrotation Yrotation
                    JOINT RightFinger02
                    {
                      OFFSET 0.8229 -2.3 1.6571
                      CHANNELS 3 Zrotation Xrotation Yrotation
                      End Site
                      {
                        OFFSET 0.5822 -1.6914 1.1582
                      }
                    }
                  }
                }
              }
            }
          }
        }
      }
    }
  }
  JOINT RightHip
  {
    OFFSET -9.412 3.9771 -0.7758
    CHANNELS 3 Zrotation Xrotation Yrotation
    JOINT RightKnee
    {
      OFFSET -0.7531 -40.938 0
      CHANNELS 3 Zrotation Xrotation Yrotation
      JOINT RightAnkle
      {
        OFFSET 0 -40.1986 0
        CHANNELS 3 Zrotation Xrotation Yrotation
        JOINT RightToe
        {
          OFFSET 0 -4.4182 9.239
          CHANNELS 3 Zrotation Xrotation Yrotation
          End Site
          {
            OFFSET 0 0 6.1981
          }
        }
      }
    }
  }
  JOINT LeftHip
  {
    OFFSET 9.4119 3.9773 -0.7758
    CHANNELS 3 Zrotation Xrotation Yrotation
    JOINT LeftKnee
    {
      OFFSET 0.7532 -40.9383 0
      CHANNELS 3 Zrotation Xrotation Yrotation
      JOINT LeftAnkle
      {
        OFFSET 0 -40.1986 0
        CHANNELS 3 Zrotation Xrotation Yrotation
        JOINT LeftToe
        {
          OFFSET 0 -4.4182 9.239
          CHANNELS 3 Zrotation Xrotation Yrotation
          End Site
          {
            OFFSET 0 0 6.1981
          }
        }
      }
    }
  }
}
MOTION
Frames:	6
Frame Time:	0.0333333
-1.83108 -2.8093 -3.34297 -13.0539 -27.4089 25.9247 0.275634 5.94317 -1.42976 0.706936 11.8774 -2.91209 0.706953 11.8775 -2.91211 1.17247 -23.2425 12.2269 17.536 3.91596 -4.20711 13.6654 -11.8864 -4.32811 53.6775 -5.57694 -12.3065 38.5234 -74.2661 20.1738 16.3413 -15.9751 52.1732 1.32417e-031 3.18055e-015 -2.38542e-015 1.59028e-015 -3.18055e-015 -7.95139e-016 1.59028e-015 3.18055e-015 -1.59028e-015 1.32417e-031 3.18055e-015 -2.38542e-015 -0.0128396 0.00232649 9.28946e-005 -2.77112e-006 -4.52647e-007 -2.56423e-006 1.32417e-031 3.18055e-015 -2.38542e-015 -0.0160457 0.00299388 0.000861201 -2.64834e-031 -6.36111e-015 -2.38542e-015 1.32417e-031 3.18055e-015 -2.38542e-015 -0.01262 0.0031462 0.00282646 1.59028e-015 6.36111e-015 7.95139e-016 1.32417e-031 3.18055e-015 -2.38542e-015 1.59028e-015 -3.18055e-015 -7.95139e-016 1.59028e-015 3.18055e-015 -1.59028e-015 -1.40359 -8.9996 22.4125 -15.0999 -0.021368 -10.9563 -9.76098 -82.3843 -12.1122 29.6878 14.3816 1.16068 3.86063e-006 -5.79705e-006 -4.6368e-006 -9.54166e-015 2.5842e-015 1.39149e-015 -3.3871e-006 9.07712e-006 -5.42626e-006 3.86063e-006 -5.79705e-006 -4.6368e-006 0.0129842 0.00231986 -9.57904e-005 -6.36111e-015 -1.2921e-014 -4.96962e-015 3.86063e-006 -5.79705e-006 -4.6368e-006 0.0163213 0.00303983 -0.00087745 -1.27222e-014 6.55989e-015 6.75868e-015 3.86063e-006 -5.79705e-006 -4.6368e-006 0.0146092 0.00368894 -0.00326139 -1.07811e-005 1.33547e-005 -1.08303e-005 3.86063e-006 -5.79705e-006 -4.6368e-006 -9.54166e-015 2.5842e-015 1.39149e-015 -3.3871e-006 9.07712e-006 -5.42626e-006 65.7018 -79.6686 102.403 -176.583 55.2749 173.782 31.3489 37.5496 0.384166 1.49764e-006 3.19763e-006 -2.04204e-006 -36.0294 -72.5551 19.6577 -169.121 74.7336 171.884 -26.3618 27.0191 41.8679 1.59028e-015 0 -3.18055e-015 
-1.83108 -2.8093 -3.34297 -13.0539 -27.4089 25.9247 0.275634 5.94317 -1.42976 0.706936 11.8774 -2.91209 0.706953 11.8775 -2.91211 1.19986 -23.1099 12.1529 17.5361 3.91621 -4.20743 13.6654 -11.8864 -4.32811 53.6775 -5.57694 -12.3065 38.5233 -74.2661 20.1737 16.0896 -15.8572 52.1317 -1.59028e-015 0 2.38542e-015 -1.59028e-015 0 -1.19271e-015 0 0 -3.97569e-015 -1.59028e-015 0 2.38542e-015 -0.0128494 0.00232352 8.18289e-005 -4.77083e-015 -3.18055e-015 1.59028e-015 -1.59028e-015 0 2.38542e-015 -0.0159898 0.00298371 0.000860975 -4.77083e-015 3.18055e-015 -2.38542e-015 -1.59028e-015 0 2.38542e-015 -0.0126103 0.00312469 0.00283248 -2.3878e-006 8.3012e-006 -5.70676e-006 -1.59028e-015 0 2.38542e-015 -1.59028e-015 0 -1.19271e-015 0 0 -3.97569e-015 -1.40359 -8.9996 22.4125 -15.0999 -0.0214296 -10.9563 -9.88363 -82.5096 -12.2586 29.897 14.4195 1.15208 -3.70052e-006 -1.92116e-006 -1.46542e-005 6.36328e-006 -9.35761e-006 1.8625e-005 -9.54166e-015 2.14687e-014 1.98785e-016 -3.70052e-006 -1.92116e-006 -1.46542e-005 0.0129623 0.00231885 -7.5341e-005 6.36111e-015 1.66979e-014 2.38542e-015 -3.70052e-006 -1.92116e-006 -1.46542e-005 0.0163385 0.00304125 -0.000865115 -3.18055e-015 -3.18055e-015 -1.98785e-016 -3.70052e-006 -1.92116e-006 -1.46542e-005 0.0146089 0.0036819 -0.0032584 -1.30348e-031 -1.39149e-015 -5.36719e-015 -3.70052e-006 -1.92116e-006 -1.46542e-005 6.36328e-006 -9.35761e-006 1.8625e-005 -9.54166e-015 2.14687e-014 1.98785e-016 65.7018 -79.6686 102.403 -176.583 55.2749 173.782 31.3489 37.5496 0.384166 1.49764e-006 3.19763e-006 -2.04204e-006 -36.0294 -72.5551 19.6577 -169.121 74.7336 171.884 -26.3618 27.0191 41.8679 1.59028e-015 0 -3.18055e-015 
-1.83108 -2.8093 -3.34297 -13.0539 -27.4089 25.9247 0.275634 5.94317 -1.42976 0.706936 11.8774 -2.91209 0.706953 11.8775 -2.91211 1.22743 -22.9772 12.079 17.5362 3.91646 -4.20772 13.6654 -11.8864 -4.32811 53.6775 -5.57694 -12.3065 38.5233 -74.2661 20.1737 15.8379 -15.739 52.0908 -1.32417e-031 6.36111e-015 1.19271e-015 1.59028e-015 -6.36111e-015 7.95139e-016 1.10348e-031 -3.18055e-015 1.98785e-015 -1.32417e-031 6.36111e-015 1.19271e-015 -0.0127753 0.00232951 8.68764e-005 1.59028e-015 0 -3.97569e-016 -1.32417e-031 6.36111e-015 1.19271e-015 -0.0160926 0.00300057 0.000853246 -1.59028e-015 3.18055e-015 -7.55382e-015 -1.32417e-031 6.36111e-015 1.19271e-015 -0.0126 0.00312811 0.00284059 -1.59028e-015 -3.18055e-015 -2.78299e-015 -1.32417e-031 6.36111e-015 1.19271e-015 1.59028e-015 -6.36111e-015 7.95139e-016 1.10348e-031 -3.18055e-015 1.98785e-015 -1.40359 -8.9996 22.4125 -15.0999 -0.021523 -10.9563 -10.8721 -83.3753 -13.4119 30.1061 14.4575 1.14341 3.5597e-006 -1.62646e-006 7.86448e-006 -8.80702e-006 -4.83323e-006 -3.70873e-006 -1.93079e-006 -2.95111e-006 -2.48508e-006 3.5597e-006 -1.62646e-006 7.86448e-006 0.0129565 0.00232285 -9.06545e-005 -2.36191e-006 -1.01726e-005 5.47248e-006 3.5597e-006 -1.62646e-006 7.86448e-006 0.0163067 0.00301995 -0.000858731 -7.41163e-006 3.22573e-006 -1.0424e-005 3.5597e-006 -1.62646e-006 7.86448e-006 0.0146165 0.00368235 -0.00327147 -3.83635e-006 -7.48304e-007 -1.48664e-007 3.5597e-006 -1.62646e-006 7.86448e-006 -8.80702e-006 -4.83323e-006 -3.70873e-006 -1.93079e-006 -2.95111e-006 -2.48508e-006 65.7018 -79.6686 102.403 -176.583 55.2749 173.782 31.3489 37.5496 0.384166 1.49764e-006 3.19763e-006 -2.04204e-006 -36.0294 -72.5551 19.6577 -169.121 74.7336 171.884 -26.3618 27.0191 41.8679 1.59028e-015 0 -3.18055e-015 
-1.83108 -2.8093 -3.34297 -13.0539 -27.4089 25.9247 0.275634 5.94317 -1.42976 0.706936 11.8774 -2.91209 0.706953 11.8775 -2.91211 1.25516 -22.8446 12.005 17.5363 3.9167 -4.20802 13.6654 -11.8864 -4.32811 53.6775 -5.57694 -12.3065 38.5234 -74.2661 20.1738 15.5863 -15.6205 52.0504 8.82781e-031 1.27222e-014 -3.97569e-015 -5.67886e-007 -3.84401e-007 -1.54073e-006 -4.77083e-015 -6.36111e-015 -3.97569e-016 8.82781e-031 1.27222e-014 -3.97569e-015 -0.0128405 0.0023303 8.06857e-005 -3.18055e-015 -3.18055e-015 2.78299e-015 8.82781e-031 1.27222e-014 -3.97569e-015 -0.0160634 0.00299251 0.000860931 -1.59028e-015 -6.36111e-015 7.15625e-015 8.82781e-031 1.27222e-014 -3.97569e-015 -0.0125454 0.0031191 0.00281344 8.82781e-032 -6.36111e-015 7.95139e-016 8.82781e-031 1.27222e-014 -3.97569e-015 -5.67886e-007 -3.84401e-007 -1.54073e-006 -4.77083e-015 -6.36111e-015 -3.97569e-016 -1.40359 -8.9996 22.4125 -15.0999 -0.0216075 -10.9562 -12.1883 -84.2417 -14.8934 30.3152 14.4953 1.13452 -6.70817e-006 2.80764e-006 -6.48836e-006 3.89347e-006 2.90112e-006 2.52136e-006 -9.54166e-015 -1.59028e-015 -1.59028e-015 -6.70817e-006 2.80764e-006 -6.48836e-006 0.0129442 0.00231317 -9.21303e-005 3.18055e-015 -1.19271e-015 -7.95139e-016 -6.70817e-006 2.80764e-006 -6.48836e-006 0.016334 0.0030373 -0.000866076 -1.87752e-006 8.45905e-007 9.85076e-006 -6.70817e-006 2.80764e-006 -6.48836e-006 0.0145656 0.00367553 -0.00325796 0 5.1684e-015 -0 -6.70817e-006 2.80764e-006 -6.48836e-006 3.89347e-006 2.90112e-006 2.52136e-006 -9.54166e-015 -1.59028e-015 -1.59028e-015 65.7018 -79.6686 102.403 -176.583 55.2749 173.782 31.3489 37.5496 0.384166 1.49764e-006 3.19763e-006 -2.04204e-006 -36.0294 -72.5551 19.6577 -169.121 74.7336 171.884 -26.3618 27.0191 41.8679 1.59028e-015 0 -3.18055e-015 
-1.83108 -2.8093 -3.34297 -13.0539 -27.4089 25.9247 0.275634 5.94317 -1.42976 0.706936 11.8774 -2.91209 0.706953 11.8775 -2.91211 1.28305 -22.712 11.931 17.5364 3.91695 -4.20833 13.6654 -11.8864 -4.32811 53.6775 -5.57694 -12.3065 38.5233 -74.2661 20.1737 15.3347 -15.5019 52.0105 -2.39278e-006 7.42902e-006 2.70212e-006 4.33066e-006 -6.86244e-006 4.13966e-006 3.31043e-031 9.54166e-015 -1.98785e-015 -2.39278e-006 7.42902e-006 2.70212e-006 -0.0127707 0.00232042 8.92854e-005 -8.82781e-032 -3.18055e-015 -1.59028e-015 -2.39278e-006 7.42902e-006 2.70212e-006 -0.0160352 0.00298303 0.000853325 1.59028e-015 3.18055e-015 -0 -2.39278e-006 7.42902e-006 2.70212e-006 -0.0125995 0.00311714 0.00283284 3.18055e-015 9.54166e-015 -3.97569e-015 -2.39278e-006 7.42902e-006 2.70212e-006 4.33066e-006 -6.86244e-006 4.13966e-006 3.31043e-031 9.54166e-015 -1.98785e-015 -1.40359 -8.9996 22.4125 -15.1 -0.0217028 -10.9563 -14.0064 -85.107 -16.8776 30.5242 14.5332 1.12557 1.27222e-014 -7.95139e-016 -3.57812e-015 1.90833e-014 2.38542e-015 5.96354e-015 3.18055e-015 5.1684e-015 2.78299e-015 1.27222e-014 -7.95139e-016 -3.57812e-015 0.0129541 0.00231698 -7.88951e-005 6.36111e-015 -8.74653e-015 -4.77083e-015 1.27222e-014 -7.95139e-016 -3.57812e-015 0.016348 0.00304669 -0.000875576 -6.36111e-015 -7.95139e-016 -1.19271e-015 1.27222e-014 -7.95139e-016 -3.57812e-015 0.0145915 0.00368948 -0.00325953 -3.18055e-015 -7.55382e-015 -9.54166e-015 1.27222e-014 -7.95139e-016 -3.57812e-015 1.90833e-014 2.38542e-015 5.96354e-015 3.18055e-015 5.1684e-015 2.78299e-015 65.7018 -79.6686 102.403 -176.583 55.2749 173.782 31.3489 37.5496 0.384166 1.49764e-006 3.19763e-006 -2.04204e-006 -36.0294 -72.5551 19.6577 -169.121 74.7336 171.884 -26.3618 27.0191 41.8679 1.59028e-015 0 -3.18055e-015 
-1.83108 -2.8093 -3.34297 -13.0539 -27.4089 25.9247 0.275634 5.94317 -1.42976 0.706936 11.8774 -2.91209 0.706953 11.8775 -2.91211 1.31112 -22.5793 11.857 17.5365 3.9172 -4.20861 13.6654 -11.8864 -4.32811 53.6775 -5.57694 -12.3065 38.5233 -74.266 20.1737 15.0831 -15.3829 51.9711 1.59028e-015 3.18055e-015 -3.18055e-015 -1.76556e-031 3.18055e-015 3.18055e-015 4.41391e-032 3.18055e-015 -7.95139e-016 1.59028e-015 3.18055e-015 -3.18055e-015 -0.0128653 0.00234798 8.812e-005 -2.20695e-031 -6.36111e-015 -1.98785e-015 1.59028e-015 3.18055e-015 -3.18055e-015 -0.0160224 0.00300201 0.000855896 -3.26837e-006 5.45557e-006 -6.16706e-006 1.59028e-015 3.18055e-015 -3.18055e-015 -0.012604 0.00313865 0.0028358 -6.62086e-032 3.18055e-015 1.19271e-015 1.59028e-015 3.18055e-015 -3.18055e-015 -1.76556e-031 3.18055e-015 3.18055e-015 4.41391e-032 3.18055e-015 -7.95139e-016 -1.40359 -8.9996 22.4125 -15.1 -0.0217587 -10.9563 -16.6494 -85.9682 -19.687 30.7332 14.5709 1.11644 -1.59028e-014 0 1.59028e-015 -4.76912e-006 3.89622e-006 3.88362e-006 -6.91195e-007 4.15458e-006 3.27498e-006 -1.59028e-014 0 1.59028e-015 0.0129415 0.00231073 -7.6083e-005 3.18055e-015 3.97569e-016 1.59028e-015 -1.59028e-014 0 1.59028e-015 0.016379 0.00304235 -0.000863701 3.18055e-015 -1.43125e-014 6.36111e-015 -1.59028e-014 0 1.59028e-015 0.01457 0.00367562 -0.00324462 -1.27222e-014 1.27222e-014 -4.77083e-015 -1.59028e-014 0 1.59028e-015 -4.76912e-006 3.89622e-006 3.88362e-006 -6.91195e-007 4.15458e-006 3.27498e-006 65.7018 -79.6686 102.403 -176.583 55.2749 173.782 31.3489 37.5496 0.384166 1.49764e-006 3.19763e-006 -2.04204e-006 -36.0294 -72.5551 19.6577 -169.121 74.7336 171.884 -26.3618 27.0191 41.8679 1.59028e-015 0 -3.18055e-015 
